<svg xmlns="http://www.w3.org/2000/svg" viewBox="0 0 158.19 137"><defs><style>.cls-1{fill:#ffda68;}.cls-2{fill:#010101;}.cls-3{fill:#faa21b;}.cls-4{fill:#f3932b;}</style></defs><g id="Layer_2" data-name="Layer 2"><g id="Base_medal" data-name="Base medal"><polygon class="cls-1" points="39.84 136.5 0.58 68.5 39.84 0.5 118.36 0.5 157.62 68.5 118.36 136.5 39.84 136.5"/><path class="cls-2" d="M118.65,1.5l39,67.5-39,67.5H40.7L1.73,69l39-67.5h78m.57-1H40.13L.58,69l39.55,68.5h79.09L158.77,69,119.22.5Z" transform="translate(-0.58 -0.5)"/><path class="cls-3" d="M40.41,137,1.15,69,40.41,1h78.52l39.26,68-39.26,68ZM18.83,69l30.42,52.69H110.1L140.52,69,110.1,16.31H49.25Z" transform="translate(-0.58 -0.5)"/><path class="cls-4" d="M118.65,1.5l39,67.5-39,67.5H40.7L1.73,69l39-67.5h78M49,122.19h61.42l.29-.5L140.8,69.5l.29-.5-.29-.5L110.67,16.31l-.29-.5H49l-.28.5L18.54,68.5l-.28.5.28.5,30.14,52.19.28.5M119.22.5H40.13L.58,69l39.55,68.5h79.09L158.77,69,119.22.5ZM49.54,121.19,19.41,69,49.54,16.81h60.27L139.94,69l-30.13,52.19Z" transform="translate(-0.58 -0.5)"/></g></g></svg>